<?xml version="1.0" encoding="UTF-8"?> <svg xmlns="http://www.w3.org/2000/svg" xmlns:xlink="http://www.w3.org/1999/xlink" width="202.897" height="64.724" viewBox="0 0 202.897 64.724"><defs><clipPath id="clip-path"><rect id="Rectángulo_293" data-name="Rectángulo 293" width="202.897" height="64.724" fill="#fff"></rect></clipPath></defs><g id="planner_logo_footer" data-name="planner logo footer" transform="translate(0 0)"><g id="Grupo_394" data-name="Grupo 394" transform="translate(0 0)" clip-path="url(#clip-path)"><path id="Trazado_2192" data-name="Trazado 2192" d="M4.486,48.323v.81a3.589,3.589,0,0,0-1.559-.416,2.155,2.155,0,0,0-1.537.59A1.99,1.99,0,0,0,1.4,52.215a2.275,2.275,0,0,0,1.6.586,3.015,3.015,0,0,0,1.479-.441v.818a3.232,3.232,0,0,1-1.542.379,2.908,2.908,0,0,1-2.08-.824A2.645,2.645,0,0,1,0,50.748a2.611,2.611,0,0,1,.85-1.957,2.848,2.848,0,0,1,2.045-.814,4.094,4.094,0,0,1,1.591.346" transform="translate(0 11.1)" fill="#fff"></path><path id="Trazado_2193" data-name="Trazado 2193" d="M14.826,50.731a2.579,2.579,0,0,1,.856-1.943,2.884,2.884,0,0,1,2.056-.811,2.8,2.8,0,0,1,2.018.816,2.6,2.6,0,0,1,.847,1.938,2.708,2.708,0,0,1-.836,2.008,2.963,2.963,0,0,1-4.1-.007,2.7,2.7,0,0,1-.843-2m5.017.033a1.931,1.931,0,0,0-.626-1.462,2.146,2.146,0,0,0-1.537-.592,2.044,2.044,0,0,0-1.486.6,1.948,1.948,0,0,0-.619,1.451,1.908,1.908,0,0,0,.637,1.452,2.192,2.192,0,0,0,1.555.592,2.021,2.021,0,0,0,1.463-.6,1.955,1.955,0,0,0,.613-1.439" transform="translate(3.43 11.1)" fill="#fff"></path><path id="Trazado_2194" data-name="Trazado 2194" d="M30.912,47.94l3.874,3.981v-3.77H35.5v5.481l-3.874-3.964v3.721h-.715Z" transform="translate(7.152 11.092)" fill="#fff"></path><path id="Trazado_2195" data-name="Trazado 2195" d="M49.42,48.726l-.581.465a2.194,2.194,0,0,0-.416-.356,1,1,0,0,0-.539-.118,1.034,1.034,0,0,0-.626.175.527.527,0,0,0-.24.448.546.546,0,0,0,.209.421,2.88,2.88,0,0,0,.714.4,5.156,5.156,0,0,1,.787.4,2.048,2.048,0,0,1,.462.413,1.635,1.635,0,0,1,.268.478,1.566,1.566,0,0,1,.09.528,1.492,1.492,0,0,1-.477,1.114,1.589,1.589,0,0,1-1.15.461,1.948,1.948,0,0,1-1.161-.36,2.253,2.253,0,0,1-.775-1.08l.715-.2a1.271,1.271,0,0,0,1.2.884.937.937,0,0,0,.649-.233.761.761,0,0,0,.26-.591.8.8,0,0,0-.135-.429,1.191,1.191,0,0,0-.339-.353,3.583,3.583,0,0,0-.642-.32,4.26,4.26,0,0,1-.676-.332,1.711,1.711,0,0,1-.411-.356,1.558,1.558,0,0,1-.255-.414,1.207,1.207,0,0,1-.08-.44,1.228,1.228,0,0,1,.453-.959,1.605,1.605,0,0,1,1.1-.4,2.223,2.223,0,0,1,.867.185,1.779,1.779,0,0,1,.734.564" transform="translate(10.639 11.1)" fill="#fff"></path><path id="Trazado_2196" data-name="Trazado 2196" d="M60,48.111h3.2v.714h-1.25v4.524h-.708V48.825H60Z" transform="translate(13.883 11.131)" fill="#fff"></path><path id="Trazado_2197" data-name="Trazado 2197" d="M74.02,48.111h1.135a2.16,2.16,0,0,1,1.38.421,1.317,1.317,0,0,1,.531,1.079,1.387,1.387,0,0,1-.344.93,1.926,1.926,0,0,1-1.075.568l1.522,2.241h-.819L74.9,51.194h-.16v2.155H74.02Zm.717.633v1.825q1.583.033,1.582-.916a.8.8,0,0,0-.185-.545.95.95,0,0,0-.494-.287,3.975,3.975,0,0,0-.9-.076" transform="translate(17.125 11.131)" fill="#fff"></path><path id="Trazado_2198" data-name="Trazado 2198" d="M88,48.117h.715v3.22a1.626,1.626,0,0,0,.344,1.107,1.228,1.228,0,0,0,.972.389A1.293,1.293,0,0,0,91,52.475a1.4,1.4,0,0,0,.348-1.015V48.117h.715v3.3a2.142,2.142,0,0,1-.549,1.537,1.927,1.927,0,0,1-1.463.576,1.981,1.981,0,0,1-1.494-.584A2.39,2.39,0,0,1,88,51.218Z" transform="translate(20.359 11.133)" fill="#fff"></path><path id="Trazado_2199" data-name="Trazado 2199" d="M107.1,48.323v.81a3.589,3.589,0,0,0-1.559-.416,2.158,2.158,0,0,0-1.538.59,1.987,1.987,0,0,0,.015,2.908,2.275,2.275,0,0,0,1.6.586,3.02,3.02,0,0,0,1.48-.441v.818a3.237,3.237,0,0,1-1.543.379,2.91,2.91,0,0,1-2.08-.824,2.65,2.65,0,0,1-.864-1.986,2.616,2.616,0,0,1,.85-1.957,2.85,2.85,0,0,1,2.047-.814,4.1,4.1,0,0,1,1.591.346" transform="translate(23.741 11.1)" fill="#fff"></path><path id="Trazado_2200" data-name="Trazado 2200" d="M117.358,48.111h3.2v.714h-1.25v4.524H118.6V48.825h-1.246Z" transform="translate(27.152 11.131)" fill="#fff"></path><path id="Trazado_2201" data-name="Trazado 2201" d="M130.971,50.731a2.574,2.574,0,0,1,.855-1.943,2.883,2.883,0,0,1,2.055-.811,2.812,2.812,0,0,1,2.021.816,2.6,2.6,0,0,1,.846,1.938,2.708,2.708,0,0,1-.836,2.008,2.965,2.965,0,0,1-4.1-.007,2.7,2.7,0,0,1-.841-2m5.017.033a1.94,1.94,0,0,0-.626-1.462,2.151,2.151,0,0,0-1.538-.592,2.05,2.05,0,0,0-1.487.6,1.955,1.955,0,0,0-.618,1.451,1.911,1.911,0,0,0,.635,1.452,2.2,2.2,0,0,0,1.556.592,2.014,2.014,0,0,0,1.462-.6,1.953,1.953,0,0,0,.616-1.439" transform="translate(30.301 11.1)" fill="#fff"></path><path id="Trazado_2202" data-name="Trazado 2202" d="M147.18,48.111h1.135a2.161,2.161,0,0,1,1.38.421,1.321,1.321,0,0,1,.532,1.079,1.394,1.394,0,0,1-.345.93,1.935,1.935,0,0,1-1.075.568l1.523,2.241h-.821l-1.454-2.155h-.16v2.155h-.715Zm.715.633v1.825q1.583.033,1.584-.916a.808.808,0,0,0-.185-.545.959.959,0,0,0-.494-.287,3.987,3.987,0,0,0-.905-.076" transform="translate(34.051 11.131)" fill="#fff"></path><path id="Trazado_2203" data-name="Trazado 2203" d="M163.228,47.947l2.474,5.44h-.751l-.608-1.341h-2.221l-.6,1.341h-.744Zm0,1.635-.839,1.869h1.686Z" transform="translate(37.196 11.093)" fill="#fff"></path><path id="Trazado_2204" data-name="Trazado 2204" d="M.517,6.665H7.158a8.617,8.617,0,0,1,4.247.983A6.465,6.465,0,0,1,14.1,10.533a10.224,10.224,0,0,1,.928,4.538v10.4A8.769,8.769,0,0,1,14.2,29.4a5.732,5.732,0,0,1-2.437,2.561,7.635,7.635,0,0,1-3.735.882h-2.1V44.292H.517Zm5.456,4.852v16.7H7.2q2.394,0,2.394-3.019V14.355a3.254,3.254,0,0,0-.59-2.2,2.692,2.692,0,0,0-2.024-.637Z" transform="translate(0.12 1.543)" fill="#fff"></path><path id="Trazado_2205" data-name="Trazado 2205" d="M25.129,6.664h5.456v32.91h4.6v4.719H25.129Z" transform="translate(5.814 1.542)" fill="#fff"></path><path id="Trazado_2206" data-name="Trazado 2206" d="M50.8,6.39h4.762l5.725,37.966H55.946l-.512-4.943H50.892l-.538,4.943H44.945Zm2.305,12.544-1.747,15.9h3.514l-1.68-15.9Z" transform="translate(10.398 1.479)" fill="#fff"></path><path id="Trazado_2207" data-name="Trazado 2207" d="M70.191,6.664H73.7q2.189,6.37,3.4,10.15.606,1.878,1.14,3.6c.358,1.15.7,2.251,1.008,3.31l.873,3.263h.086V6.664h5.034V44.293h-3.6q-1.612-4.54-3.4-10.085-.872-2.774-1.308-4.2c-.289-.953-.554-1.814-.794-2.574l-.827-3.105H75.22V44.293H70.191Z" transform="translate(16.239 1.542)" fill="#fff"></path><path id="Trazado_2208" data-name="Trazado 2208" d="M94.91,6.664h3.509q2.191,6.37,3.4,10.15.606,1.878,1.143,3.6c.361,1.15.692,2.251,1.006,3.31l.871,3.263h.091V6.664h5.029V44.293h-3.6q-1.612-4.54-3.4-10.085-.874-2.774-1.308-4.2c-.292-.953-.559-1.814-.794-2.574l-.83-3.105h-.089V44.293H94.91Z" transform="translate(21.958 1.542)" fill="#fff"></path><path id="Trazado_2209" data-name="Trazado 2209" d="M151.427,6.664H158.9a6.773,6.773,0,0,1,5.332,2.067,8.691,8.691,0,0,1,1.845,5.979v3.4a8.115,8.115,0,0,1-.9,4.263,4.864,4.864,0,0,1-3.073,2v.089a7.07,7.07,0,0,1,2.335,1.241,3.967,3.967,0,0,1,1.24,1.932,10.359,10.359,0,0,1,.36,2.974V44.292h-5.5V29.559a2.837,2.837,0,0,0-.75-2.067,2.622,2.622,0,0,0-1.978-.771h-.959V44.292h-5.414Zm5.414,4.806V22.137a7,7,0,0,0,2.95-.459,1.631,1.631,0,0,0,.782-1.554V13.481a1.814,1.814,0,0,0-.639-1.5,2.836,2.836,0,0,0-1.821-.515Z" transform="translate(35.034 1.542)" fill="#fff"></path><path id="Trazado_2210" data-name="Trazado 2210" d="M149.251,16.6c-7.9-4-15.729-7.969-23.566-11.937V0c.2.1.35.172.494.259Q137.5,6.941,148.831,13.618a.705.705,0,0,1,.429.725c-.031.72-.009,1.441-.009,2.261" transform="translate(29.078 0.001)" fill="#fff" fill-rule="evenodd"></path><path id="Trazado_2211" data-name="Trazado 2211" d="M146.2,25.156q-10.257-.168-20.449-.335a45.063,45.063,0,0,1-.047-5.255c.373-.058,19.845,2.384,20.5,2.58Z" transform="translate(29.07 4.527)" fill="#fff" fill-rule="evenodd"></path><path id="Trazado_2212" data-name="Trazado 2212" d="M125.675,46.206V40.838c6.6-2.4,13.208-4.794,19.883-7.213a12,12,0,0,1,.049,1.582c.009.517,0,1.037,0,1.6-6.614,3.119-13.236,6.239-19.934,9.4" transform="translate(29.076 7.78)" fill="#fff" fill-rule="evenodd"></path><path id="Trazado_2213" data-name="Trazado 2213" d="M125.7,35.552l-.044-.132A37.244,37.244,0,0,1,125.6,30l.016-.116.117-.014,19.864-2.449.171-.021v3.375l-.118.03Zm.191-5.387a46.345,46.345,0,0,0,.032,5.018l19.538-4.646V27.752c-6.583.813-13.086,1.614-19.57,2.412" transform="translate(29.041 6.341)" fill="#fff"></path><path id="Trazado_2214" data-name="Trazado 2214" d="M145.626,20.295c-.523,0-18.628-4.765-19.971-5.257l-.1-.037V9.379l.42.147c.108.037.208.07.305.108l19.055,7.26c.421.154.447.224.449.7v.11q0,.813,0,1.624v.953Zm-19.764-5.51c1.82.592,17.8,4.807,19.614,5.177V19.33c0-.539,0-1.081,0-1.62V17.6c0-.326,0-.326-.248-.416l-.167-.062-18.893-7.2c-.094-.038-.19-.07-.293-.1l-.014,0Z" transform="translate(29.048 2.171)" fill="#fff"></path><path id="Trazado_2215" data-name="Trazado 2215" d="M142.948,22.317l-.174-.022-13.941-1.751-3.279-.411V14.4l17.394,4.366ZM125.862,19.86l3.009.378q6.893.864,13.769,1.73V19.007l-16.778-4.212Z" transform="translate(29.048 3.332)" fill="#fff"></path><path id="Trazado_2216" data-name="Trazado 2216" d="M125.682,29.874V24.758h17.107c.014,1.081.021,2.127.016,3.232l-17.123,1.884" transform="translate(29.077 5.729)" fill="#fff" fill-rule="evenodd"></path><path id="Trazado_2217" data-name="Trazado 2217" d="M125.677,40.6V35.794q8.5-2.322,17.057-4.655a10.607,10.607,0,0,1,.066,1.74c.016.552,0,1.1,0,1.715L125.677,40.6" transform="translate(29.076 7.205)" fill="#fff" fill-rule="evenodd"></path><path id="Trazado_2218" data-name="Trazado 2218" d="M142.794,16.337,125.688,9.562V4.926c.185.079.346.139.5.209q8.064,3.809,16.136,7.606a.692.692,0,0,1,.475.744c-.025.914,0,1.83,0,2.852" transform="translate(29.079 1.14)" fill="#fff" fill-rule="evenodd"></path><path id="Trazado_2219" data-name="Trazado 2219" d="M115.312,16.561c0-.892.017-1.652-.006-2.412a.908.908,0,0,1,.307-.629q2.556-2.974,5.108-5.947,3.059-3.563,6.121-7.127c.107-.126.228-.243.4-.426.017.236.037.38.037.527,0,1.214-.006,2.425.009,3.635a.98.98,0,0,1-.309.777q-5.632,5.6-11.244,11.228c-.1.1-.218.2-.42.376" transform="translate(26.677 0.005)" fill="#fff" fill-rule="evenodd"></path><path id="Trazado_2220" data-name="Trazado 2220" d="M126.958,19.5v5.335q-5.188.172-10.315.337a14.648,14.648,0,0,1-.034-3.077l10.35-2.6" transform="translate(26.964 4.511)" fill="#fff" fill-rule="evenodd"></path><path id="Trazado_2221" data-name="Trazado 2221" d="M126.862,46.144c-.938-.871-1.824-1.691-2.71-2.514q-3.519-3.264-7.041-6.527a.855.855,0,0,1-.315-.715c.017-.879.006-1.761.006-2.724a4.6,4.6,0,0,1,.4.228q4.71,3.358,9.415,6.72a.558.558,0,0,1,.318.488c-.009,1.609-.006,3.219-.009,4.826a1.241,1.241,0,0,1-.066.22" transform="translate(27.021 7.789)" fill="#fff" fill-rule="evenodd"></path><path id="Trazado_2222" data-name="Trazado 2222" d="M126.905,9.6c.011.158.025.26.025.363,0,1.506,0,3.011.007,4.514a.575.575,0,0,1-.367.6q-4.693,2.444-9.373,4.912c-.1.054-.208.1-.356.171a2.61,2.61,0,0,1-.038-.288c0-.814.006-1.627,0-2.441a.533.533,0,0,1,.219-.485q4.845-3.622,9.682-7.251a1.433,1.433,0,0,1,.2-.094" transform="translate(27.023 2.221)" fill="#fff" fill-rule="evenodd"></path><path id="Trazado_2223" data-name="Trazado 2223" d="M116.82,30.631V27.55L126.9,29.994v5.356c-3.385-1.585-6.723-3.149-10.084-4.72" transform="translate(27.027 6.374)" fill="#fff" fill-rule="evenodd"></path><path id="Trazado_2224" data-name="Trazado 2224" d="M118,22.1V18.844c2.857-1.42,5.715-2.837,8.626-4.281v5.4c-2.86.71-5.71,1.415-8.626,2.139" transform="translate(27.301 3.37)" fill="#fff" fill-rule="evenodd"></path><path id="Trazado_2225" data-name="Trazado 2225" d="M126.622,24.773v5.093c-2.886-.628-5.733-1.247-8.61-1.872V24.773Z" transform="translate(27.303 5.732)" fill="#fff" fill-rule="evenodd"></path><path id="Trazado_2226" data-name="Trazado 2226" d="M117.983,31.125l8.645,4.661v4.751a3.345,3.345,0,0,1-.336-.179q-3.988-2.761-7.979-5.519a.67.67,0,0,1-.337-.634c.017-.983.007-1.969.007-3.08" transform="translate(27.294 7.202)" fill="#fff" fill-rule="evenodd"></path><path id="Trazado_2227" data-name="Trazado 2227" d="M126.659,4.961V7.836c0,.468-.009.937,0,1.4a.54.54,0,0,1-.231.486q-4.134,3.219-8.261,6.452a.522.522,0,0,1-.137.046,2.294,2.294,0,0,1-.048-.33c0-.864.007-1.73,0-2.6a.67.67,0,0,1,.22-.549q4.126-3.834,8.243-7.678a.96.96,0,0,1,.208-.11" transform="translate(27.296 1.148)" fill="#fff" fill-rule="evenodd"></path></g></g></svg> 